<svg id="Layer_1" data-name="Layer 1" xmlns="http://www.w3.org/2000/svg" viewBox="0 0 512 512"><defs><style>.cls-1{fill:#1d1d1b;}</style></defs><title>logo-alten</title><path class="cls-1" d="M347.77,96h-187v286.3H351.61V96Zm-3.71,278.8H168.26V103.53H344V374.77Z"/><polygon class="cls-1" points="302.29 232.17 231.62 185.47 307.86 147.28 302.29 232.17"/><polygon class="cls-1" points="161.15 326.02 180.05 326.85 265.58 210.9 252 201.93 161.15 326.02"/><polygon class="cls-1" points="324.07 103.53 285.56 156.13 309.33 144.21 310.87 143.44 310.81 145.17 310.49 150.04 322.59 133.57 324.07 103.53"/><polygon class="cls-1" points="299.27 317.25 243.92 317.25 271.73 269 299.27 317.25"/><path class="cls-1" d="M258.34,344.41c.13-11.41,25.24-10.44,35.55,0Z"/><path class="cls-1" d="M171.21,412.38l-3,3.84h-7.43l14.1-18.7h5.44l13.71,18.7h-7.49l-2.76-3.84Zm6.15-9.55h-.13l-4,6.6h8.59Z"/><polygon class="cls-1" points="218.24 413.08 228.23 413.08 228.23 416.22 211.19 416.22 211.19 397.96 218.24 397.96 218.24 413.08"/><polygon class="cls-1" points="257.12 416.22 250.07 416.22 250.07 401.1 242.77 401.1 242.77 397.96 264.42 397.96 264.42 401.1 257.12 401.1 257.12 416.22"/><polygon class="cls-1" points="288.96 401.1 288.96 405.08 300.17 405.08 300.17 408.21 288.96 408.21 288.96 413.08 300.62 413.08 300.62 416.22 281.91 416.22 281.91 397.96 300.62 397.96 300.62 401.1 288.96 401.1"/><polygon class="cls-1" points="320.22 397.52 325.29 397.52 344.38 410.26 344.44 410.26 344.44 397.96 351.49 397.96 351.49 416.54 346.43 416.54 327.33 403.86 327.27 403.86 327.27 416.22 320.22 416.22 320.22 397.52"/></svg>